<mxfile host="app.diagrams.net" modified="2024-07-03T14:04:55.961Z" agent="Mozilla/5.0 (Windows NT 10.0; Win64; x64) AppleWebKit/537.36 (KHTML, like Gecko) Chrome/126.0.0.0 Safari/537.36" version="24.6.4" etag="NgsoFxNQIzzs3y5i73GV" type="github">
  <diagram name="Page-1" id="2amT90v5rnn943SV2XTT">
<mxGraphModel dx="1072" dy="509" grid="1" gridSize="10" guides="1" tooltips="1" connect="1" arrows="1" fold="1" page="1" pageScale="1" pageWidth="827" pageHeight="1169" math="0" shadow="0">
      <root>
        <mxCell id="0" />
        <mxCell id="1" parent="0" />
        <mxCell id="2" value="Client" style="shape=umlLifeline;whiteSpace=wrap;html=1;" vertex="1" parent="1">
          <mxGeometry x="60" y="80" width="80" height="30" as="geometry" />
        </mxCell>
        <mxCell id="3" value="Orders" style="shape=umlLifeline;whiteSpace=wrap;html=1;" vertex="1" parent="1">
          <mxGeometry x="200" y="80" width="80" height="30" as="geometry" />
        </mxCell>
        <mxCell id="4" value="Wine" style="shape=umlLifeline;whiteSpace=wrap;html=1;" vertex="1" parent="1">
          <mxGeometry x="340" y="80" width="80" height="30" as="geometry" />
        </mxCell>
        <mxCell id="5" value="Supplier" style="shape=umlLifeline;whiteSpace=wrap;html=1;" vertex="1" parent="1">
          <mxGeometry x="480" y="80" width="80" height="30" as="geometry" />
        </mxCell>
        <mxCell id="6" edge="1" parent="1" source="2" target="3">
          <mxGeometry width="50" height="50" relative="1" as="geometry">
            <mxPoint x="80" y="160" as="sourcePoint" />
            <mxPoint x="240" y="160" as="targetPoint" />
          </mxGeometry>
          <mxCell id="6.1" value="Order Wine" style="edgeStyle=orthogonalEdgeStyle;rounded=0;orthogonalLoop=1;jettySize=auto;html=1;" edge="1" parent="6">
            <mxGeometry relative="1" as="geometry" />
          </mxCell>
        </mxCell>
        <mxCell id="7" edge="1" parent="1" source="3" target="4">
          <mxGeometry width="50" height="50" relative="1" as="geometry">
            <mxPoint x="240" y="200" as="sourcePoint" />
            <mxPoint x="380" y="200" as="targetPoint" />
          </mxGeometry>
          <mxCell id="7.1" value="Check Stock" style="edgeStyle=orthogonalEdgeStyle;rounded=0;orthogonalLoop=1;jettySize=auto;html=1;" edge="1" parent="7">
            <mxGeometry relative="1" as="geometry" />
          </mxCell>
        </mxCell>
        <mxCell id="8" edge="1" parent="1" source="4" target="5">
          <mxGeometry width="50" height="50" relative="1" as="geometry">
            <mxPoint x="380" y="240" as="sourcePoint" />
            <mxPoint x="520" y="240" as="targetPoint" />
          </mxGeometry>
          <mxCell id="8.1" value="Get Supplier" style="edgeStyle=orthogonalEdgeStyle;rounded=0;orthogonalLoop=1;jettySize=auto;html=1;" edge="1" parent="8">
            <mxGeometry relative="1" as="geometry" />
          </mxCell>
        </mxCell>
        <mxCell id="9" edge="1" parent="1" source="5" target="4">
          <mxGeometry width="50" height="50" relative="1" as="geometry">
            <mxPoint x="520" y="280" as="sourcePoint" />
            <mxPoint x="380" y="280" as="targetPoint" />
          </mxGeometry>
          <mxCell id="9.1" value="Return Info" style="edgeStyle=orthogonalEdgeStyle;rounded=0;orthogonalLoop=1;jettySize=auto;html=1;" edge="1" parent="9">
            <mxGeometry relative="1" as="geometry" />
          </mxCell>
        </mxCell>
        <mxCell id="10" edge="1" parent="1" source="4" target="3">
          <mxGeometry width="50" height="50" relative="1" as="geometry">
            <mxPoint x="380" y="320" as="sourcePoint" />
            <mxPoint x="240" y="320" as="targetPoint" />
          </mxGeometry>
          <mxCell id="10.1" value="Return Wine" style="edgeStyle=orthogonalEdgeStyle;rounded=0;orthogonalLoop=1;jettySize=auto;html=1;" edge="1" parent="10">
            <mxGeometry relative="1" as="geometry" />
          </mxCell>
        </mxCell>
        <mxCell id="11" edge="1" parent="1" source="3" target="2">
          <mxGeometry width="50" height="50" relative="1" as="geometry">
            <mxPoint x="240" y="360" as="sourcePoint" />
            <mxPoint x="80" y="360" as="targetPoint" />
          </mxGeometry>
          <mxCell id="11.1" value="Return Wine" style="edgeStyle=orthogonalEdgeStyle;rounded=0;orthogonalLoop=1;jettySize=auto;html=1;" edge="1" parent="11">
            <mxGeometry relative="1" as="geometry" />
          </mxCell>
        </mxCell>
      </root>
    </mxGraphModel>
  </diagram>
</mxfile>
